<?xml version="1.0" encoding="UTF-8" standalone="no"?><!DOCTYPE svg PUBLIC "-//W3C//DTD SVG 1.1//EN" "http://www.w3.org/Graphics/SVG/1.1/DTD/svg11.dtd"><svg width="100%" height="100%" viewBox="0 0 99 23" version="1.1" xmlns="http://www.w3.org/2000/svg" xmlns:xlink="http://www.w3.org/1999/xlink" xml:space="preserve" xmlns:serif="http://www.serif.com/" style="fill-rule:evenodd;clip-rule:evenodd;stroke-linecap:round;stroke-linejoin:round;stroke-miterlimit:1.5;"><g id="All"><path id="Outline" d="M18.163,2.265c1.359,-0.917 2.678,-0.93 3.954,-0l5.48,2.922l24.357,-0.017l-0.001,0.83c2.546,-1.414 5.338,-1.282 8.377,0.396l0,0.92l2.478,-0c0.774,-0 1.408,0.553 2.013,1.037c0.827,-0.649 1.68,-1.018 2.566,-1.06l-0,-2.66l5.72,-0l-0,2.993c0.984,-0.423 2.022,-0.513 3.131,-0.149l4.523,-0c0.414,-0.107 0.773,-0.226 1.197,-0.217c0.523,0.012 1.114,0.181 1.65,0.336c0.807,-0.354 1.746,-0.423 2.828,-0.189l10.338,0c-2.796,7.646 -3.466,12.903 -9.588,12.776l-0.795,-2.693l-9.748,0c-1.081,0.196 -2.19,0.213 -3.332,0l-4.39,0c-0.79,0.226 -1.549,0.228 -2.276,0l-4.578,0c-1.202,0.202 -2.304,0.011 -3.299,-0.59c-3.008,1.117 -5.688,0.789 -8.025,-1.052c-2.545,2.182 -5.241,2.359 -8.107,0.279c-1.974,1.743 -4.378,1.892 -7.167,0.615l-2.034,0c-0.02,1.51 0.029,3.193 -0.345,3.798c-0.453,0.705 -1.037,1.084 -1.771,1.094c-0.855,-0.013 -1.569,-0.506 -1.991,-1.145c-0.557,-0.842 -1.347,-3.906 -1.347,-3.906l-2.471,-0.72c-0.463,0.389 -0.804,0.839 -1.34,0.925c-1.327,0.214 -4.533,0.117 -6.622,0.357c-0.211,0.721 -0.733,1.736 -1.484,1.736l-1.895,0.036c-1.383,-0.131 -2.152,-0.393 -2.835,-0.698c-0.887,-0.397 -1.545,-1.098 -1.554,-1.735c-0.008,-0.591 0.047,-1.78 0.047,-1.78l-7.013,-4.176l15.349,-8.263" style="fill:#fff;stroke:#c4c3c5;stroke-width:0.21px;"/><g id="Logo"><path id="Left" d="M7.341,10.704l8.569,-4.485l-6.181,4.64l1.878,2.291l-4.266,-2.446Z" style="fill:#c85b3c;"/><g id="Right"><g><circle cx="30.827" cy="15.162" r="0.587" style="fill:#c85b3c;"/><path d="M30.239,16.311l1.175,3.25l0.267,-3.258l-1.442,0.008Z" style="fill:#c85b3c;"/></g><path d="M20.335,3.6l10.655,6.963l-2.009,2.587l4.537,-2.539l-13.183,-7.011Z" style="fill:#c85b3c;"/><path d="M31.23,11.863l0,2.139l-0.916,0l0,-1.611l0.916,-0.528Z" style="fill:#c85b3c;"/></g><g><path d="M12.813,12.935c-0.242,-0.132 0.74,-1.714 7.164,-1.65c4.116,0.04 6.329,1.169 7.279,1.396c0.18,0.044 0.133,-0.591 0.038,-0.624c-1.283,-0.444 -3.648,-1.497 -7.315,-1.515c-8.123,-0.04 -8.465,2.328 -7.166,2.393Z" style="fill:#c85b3c;"/><path d="M19.947,12.169c3.391,0.012 6.43,0.925 7.231,1.16c0.206,0.06 0.114,0.699 -0.095,0.653c-1.127,-0.25 -3.524,-0.927 -7.204,-0.927c-7.726,0 -7.066,1.696 -7.066,1.696c-0,0 -0.66,-0.147 -0.66,-0.608c-0,-0.744 1.436,-1.998 7.794,-1.974Z" style="fill:#c85b3c;"/><path d="M23.921,14.667c-1.104,-0.469 -2.906,-0.529 -4.629,-0.524c-3.692,0.039 -7.122,0.851 -7.139,1.562c-0.018,0.744 2.014,1.097 3.52,1.146c-1.09,-0.243 -2.17,-0.515 -2.173,-0.879c-0.003,-0.4 2.966,-0.918 5.003,-1.08c4.126,-0.34 5.418,-0.225 5.418,-0.225Z" style="fill:#c85b3c;"/></g></g><g id="Text"><path d="M88.115,9.337l2.371,5.694c-0.353,0.924 -0.951,1.475 -1.866,1.544l0.406,1.469c1.173,-0.198 2.19,-1.171 3.022,-3.057l2.118,-5.65l-1.635,0l-1.304,4.295l-1.349,-4.295l-1.763,0Z" style="fill:#556aad;"/><path d="M78.944,9.337l-0,6.128l1.545,0l-0,-3.61c-0,-1.643 2.131,-1.643 2.131,0l0,3.611l1.456,0l-0,-3.601c-0,-1.687 2.019,-1.687 2.007,0l0,3.603l1.546,-0l-0,-3.821c-0,-1.176 -0.63,-2.314 -2.181,-2.31c-0.83,0.002 -1.311,0.451 -1.694,0.989c-0.372,-0.635 -0.922,-0.996 -1.744,-0.989c-0.784,0.007 -1.314,0.408 -1.67,0.943l-0,-0.943l-1.396,0Z" style="fill:#556aad;"/><g><path d="M73.943,12.768l3.885,-0c0.053,-2.22 -0.724,-3.433 -2.503,-3.431c-1.715,0.042 -2.889,0.882 -2.889,3.065c0,1.493 0.399,2.951 3.01,3.066c0.614,-0.024 1.263,-0.114 2.032,-0.423l-0.158,-0.941c-2.154,0.65 -3.248,0.171 -3.377,-1.336Z" style="fill:#556aad;"/><path d="M73.939,11.794c0.043,-1.8 2.465,-1.877 2.494,-0l-2.494,-0Z" style="fill:#fff;"/></g><g><path d="M68.23,9.383c0.54,-0.019 1.054,0.199 1.543,0.645l-0,-3.34l1.493,-0l0,8.777l-1.337,0l-0,-0.98c-0.54,0.649 -1.158,0.972 -1.851,0.983c-1.763,-0.035 -2.544,-1.302 -2.544,-3.065c0,-1.955 0.901,-2.957 2.696,-3.02Z" style="fill:#556aad;"/><path d="M69.779,12.391c-0,-1.313 -0.472,-1.939 -1.289,-1.919c-0.996,-0 -1.489,0.738 -1.489,1.93c0,1.193 0.392,1.87 1.473,1.87c0.903,-0 1.305,-0.568 1.305,-1.881Z" style="fill:#fff;"/></g><g><path d="M59.682,9.947l0.452,0.862c0.429,-0.261 0.936,-0.435 1.583,-0.451c0.78,0.017 1.233,0.386 1.23,1.245c-2.434,-0.02 -3.5,0.69 -3.452,1.994c-0.002,1.221 0.559,1.883 1.799,1.869c0.64,0.026 1.22,-0.229 1.733,-0.787l-0,0.786l1.31,0l0,-3.818c0.004,-1.535 -0.826,-2.31 -2.361,-2.31c-1.012,0.032 -1.813,0.265 -2.294,0.61Z" style="fill:#556aad;"/><path d="M62.933,12.485c-1.377,-0.045 -2.028,0.369 -2.01,1.206c-0.004,0.617 0.46,0.734 0.893,0.734c0.001,0 -0,-0.002 -0,-0.002c0.544,0 1.12,-0.337 1.12,-1.269c-0,-0.832 -0.003,-0.673 -0.003,-0.673" style="fill:#fff;"/></g><path d="M55.871,7.21c-2.715,0.045 -4.486,1.405 -4.486,4.128c0,2.722 1.437,4.168 4.423,4.127c1.302,-0.018 1.78,-0.167 2.559,-0.63l-0,-4.153l-3.025,-0l-0,1.484l1.291,0l-0,1.559c-1.824,0.435 -3.399,-0.231 -3.344,-2.387c0.045,-1.778 0.968,-2.677 2.685,-2.652c0.986,0.014 1.448,0.202 1.781,0.4l0.392,-1.407c-1.285,-0.555 -1.865,-0.476 -2.276,-0.469Z" style="fill:#c85b3c;"/><path d="M43.521,7.21l1.853,0l0.029,5.261c0.051,0.976 0.478,1.461 1.427,1.46c0.919,0.01 1.469,-0.576 1.469,-1.495l-0.001,-5.226l1.826,0l0.011,4.687c0.002,2.767 -1.523,3.573 -3.328,3.568c-1.727,-0.004 -3.299,-1.04 -3.299,-3.5l0.013,-4.755Z" style="fill:#c85b3c;"/><path d="M37.947,13.746l-0.156,1.416c0.668,0.266 1.19,0.33 1.501,0.293c0.455,0.035 1.163,-0.029 1.895,-0.648c0.384,-0.325 0.834,-0.888 0.853,-2.275l-0.026,-5.322l-1.831,0c-0,0 0.011,0 0.011,5.763c0,0.708 -0.383,0.882 -0.811,0.882l-1.436,-0.109Z" style="fill:#c85b3c;"/></g></g></svg>